<svg width="48" height="108" viewBox="0 0 48 108" fill="none" xmlns="http://www.w3.org/2000/svg">
<g clip-path="url(#clip0_5218_6886)">
<path fill-rule="evenodd" clip-rule="evenodd" d="M48 0H0V108H48V106.705C45.2356 106.687 43 104.364 43 101.5C43 98.6369 45.2356 96.3135 48 96.2956V91.0843C45.2212 91.0838 42.9688 88.7537 42.9688 85.8795C42.9688 83.0053 45.2212 80.6753 48 80.6747V75.47C45.2212 75.4694 42.9688 73.1394 42.9688 70.2652C42.9688 67.391 45.2212 65.0609 48 65.0603V59.8556C45.2212 59.855 42.9688 57.525 42.9688 54.6508C42.9688 51.7766 45.2212 49.4465 48 49.446V44.2413C45.2212 44.2407 42.9688 41.9106 42.9688 39.0364C42.9688 36.1622 45.2212 33.8322 48 33.8316V28.6269C45.2212 28.6263 42.9688 26.2963 42.9688 23.4221C42.9688 20.5479 45.2212 18.2178 48 18.2173V13.0125C45.2212 13.012 42.9688 10.6819 42.9688 7.80772C42.9688 4.93352 45.2212 2.60346 48 2.6029V0Z" fill="#04C99E"/>
<circle r="39.598" transform="matrix(-0.707107 -0.707107 -0.707107 0.707107 -18 28.8203)" fill="url(#paint0_linear_5218_6886)" fill-opacity="0.1"/>
<circle r="39.598" transform="matrix(-0.707107 -0.707107 -0.707107 0.707107 -3.99999 73.8203)" fill="url(#paint1_linear_5218_6886)" fill-opacity="0.1"/>
</g>
<defs>
<linearGradient id="paint0_linear_5218_6886" x1="39.598" y1="0" x2="39.598" y2="79.196" gradientUnits="userSpaceOnUse">
<stop stop-color="white"/>
<stop offset="1" stop-color="white" stop-opacity="0"/>
</linearGradient>
<linearGradient id="paint1_linear_5218_6886" x1="39.598" y1="0" x2="39.598" y2="79.196" gradientUnits="userSpaceOnUse">
<stop stop-color="white"/>
<stop offset="1" stop-color="white" stop-opacity="0"/>
</linearGradient>
<clipPath id="clip0_5218_6886">
<rect width="48" height="108" fill="white"/>
</clipPath>
</defs>
</svg>
