<svg width="12" height="108" viewBox="0 0 12 108" fill="none" xmlns="http://www.w3.org/2000/svg">
<path fill-rule="evenodd" clip-rule="evenodd" d="M0 0H12V108H0V106.705C2.76439 106.687 5 104.364 5 101.5C5 98.6369 2.76439 96.3135 0 96.2956V91.0843C2.77878 91.0838 5.03125 88.7537 5.03125 85.8795C5.03125 83.0053 2.77878 80.6753 0 80.6747V75.47C2.77878 75.4694 5.03125 73.1394 5.03125 70.2652C5.03125 67.391 2.77878 65.0609 0 65.0603V59.8556C2.77878 59.855 5.03125 57.525 5.03125 54.6508C5.03125 51.7766 2.77878 49.4465 0 49.446V44.2413C2.77878 44.2407 5.03125 41.9106 5.03125 39.0364C5.03125 36.1622 2.77878 33.8322 0 33.8316V28.6269C2.77878 28.6263 5.03125 26.2963 5.03125 23.4221C5.03125 20.5479 2.77878 18.2178 0 18.2173V13.0125C2.77878 13.012 5.03125 10.6819 5.03125 7.80772C5.03125 4.93352 2.77878 2.60346 0 2.6029V0Z" fill="white"/>
</svg>
